Coordinates
version=1
nRows=11
nColumns=40
inDegrees=yes

Units are S.I. units (second, meters, Newtons, ...)
If the header above contains a line with 'inDegrees', this indicates whether rotational values are in degrees (yes) or radians (no).

endheader
time	pelvis_tilt	pelvis_list	pelvis_rotation	pelvis_tx	pelvis_ty	pelvis_tz	hip_flexion_r	hip_adduction_r	hip_rotation_r	knee_angle_r	knee_angle_r_beta	ankle_angle_r	subtalar_angle_r	mtp_angle_r	hip_flexion_l	hip_adduction_l	hip_rotation_l	knee_angle_l	knee_angle_l_beta	ankle_angle_l	subtalar_angle_l	mtp_angle_l	lumbar_extension	lumbar_bending	lumbar_rotation	arm_flex_r	arm_add_r	arm_rot_r	elbow_flex_r	pro_sup_r	wrist_flex_r	wrist_dev_r	arm_flex_l	arm_add_l	arm_rot_l	elbow_flex_l	pro_sup_l	wrist_flex_l	wrist_dev_l
      5.15000000	      2.21158981	      1.40671650	    -88.47976042	      1.22094487	      0.94165194	      0.29504931	      1.62588765	     -7.27804484	    -20.77213359	      7.60891277	      0.13280058	      2.35214786	      5.81338332	      0.00000000	      0.92568167	     -1.10295892	    -21.62237537	      6.37812781	      0.11131933	      1.78093188	     12.32886355	      0.00000000	      3.65440456	     -0.74745856	     -2.77080664	     44.99992434	    -14.99999999	     44.99992434	     75.00017585	     45.00000026	      0.00000000	      0.00000000	     44.99992434	    -14.99999999	     44.99992434	     75.00017585	     45.00000026	      0.00000000	      0.00000000
      5.15500000	      2.21562475	      1.40895504	    -88.48329942	      1.22087301	      0.94161966	      0.29512882	      1.66458083	     -7.30026244	    -20.86091954	      7.69904515	      0.13437369	      2.37737691	      5.90729402	      0.00000000	      0.94539869	     -1.12373955	    -21.70607191	      6.43959591	      0.11239215	      1.82293062	     12.48358011	      0.00000000	      3.66996274	     -0.77412900	     -2.78966887	     44.99992434	    -14.99999999	     44.99992434	     75.00017585	     45.00000026	      0.00000000	      0.00000000	     44.99992434	    -14.99999999	     44.99992434	     75.00017585	     45.00000026	      0.00000000	      0.00000000
      5.16000000	      2.22794607	      1.40259143	    -88.50019025	      1.22081470	      0.94159813	      0.29518062	      1.68305077	     -7.32663352	    -20.90200106	      7.76383595	      0.13550450	      2.43074399	      5.97315531	      0.00000000	      0.94766122	     -1.12359957	    -21.76925258	      6.47632754	      0.11303324	      1.83942724	     12.54172568	      0.00000000	      3.69725314	     -0.81201629	     -2.79917256	     44.99992434	    -14.99999999	     44.99992434	     75.00017585	     45.00000026	      0.00000000	      0.00000000	     44.99992434	    -14.99999999	     44.99992434	     75.00017585	     45.00000026	      0.00000000	      0.00000000
      5.16500000	      2.23646758	      1.42203602	    -88.46538416	      1.22090058	      0.94153273	      0.29529045	      1.70652219	     -7.36655145	    -21.07441288	      7.80308944	      0.13618960	      2.44059846	      6.26602349	      0.00000000	      0.99659189	     -1.13402592	    -21.84364392	      6.54730216	      0.11427198	      1.88836680	     12.71743567	      0.00000000	      3.70984865	     -0.80750849	     -2.86917624	     44.99992434	    -14.99999999	     44.99992434	     75.00017585	     45.00000026	      0.00000000	      0.00000000	     44.99992434	    -14.99999999	     44.99992434	     75.00017585	     45.00000026	      0.00000000	      0.00000000
      5.17000000	      2.25602701	      1.44166716	    -88.50769271	      1.22076157	      0.94149676	      0.29531194	      1.77097931	     -7.39735277	    -21.06540866	      7.89544035	      0.13780143	      2.51690041	      6.25417277	      0.00000000	      0.99863561	     -1.10507544	    -21.81918836	      6.51022138	      0.11362480	      1.86450875	     12.60640225	      0.00000000	      3.73379154	     -0.90084914	     -2.87601328	     44.99992434	    -14.99999999	     44.99992434	     75.00017585	     45.00000026	      0.00000000	      0.00000000	     44.99992434	    -14.99999999	     44.99992434	     75.00017585	     45.00000026	      0.00000000	      0.00000000
      5.17500000	      2.25275434	      1.45863379	    -88.42176507	      1.22093451	      0.94144999	      0.29545646	      1.75318989	     -7.41258361	    -21.24697985	      7.86510017	      0.13727189	      2.46886287	      6.54662310	      0.00000000	      1.06924596	     -1.13683987	    -21.89680886	      6.64566951	      0.11598881	      1.89417015	     12.84035944	      0.00000000	      3.76796939	     -0.86888723	     -2.93140537	     44.99992434	    -14.99999999	     44.99992434	     75.00017585	     45.00000026	      0.00000000	      0.00000000	     44.99992434	    -14.99999999	     44.99992434	     75.00017585	     45.00000026	      0.00000000	      0.00000000
      5.18000000	      2.27269645	      1.41055814	    -88.50916450	      1.22073460	      0.94150973	      0.29539040	      1.77162289	     -7.44227672	    -21.17812586	      7.98803268	      0.13941747	      2.57904776	      6.43463042	      0.00000000	      0.98122900	     -1.10476271	    -21.90164745	      6.56791123	      0.11463168	      1.89706073	     12.70423065	      0.00000000	      3.67003207	     -0.88866504	     -2.89469892	     44.99992434	    -14.99999999	     44.99992434	     75.00017585	     45.00000026	      0.00000000	      0.00000000	     44.99992434	    -14.99999999	     44.99992434	     75.00017585	     45.00000026	      0.00000000	      0.00000000
      5.18500000	      2.17321629	      1.39061151	    -88.51687275	      1.22067978	      0.94165624	      0.29536478	      1.57297735	     -7.18993785	    -20.64671782	      7.54509225	      0.13168670	      2.31136280	      5.64902650	      0.00000000	      0.94429687	     -1.20439419	    -21.82652200	      6.51569007	      0.11372024	      1.89284455	     12.56099079	      0.00000000	      3.62679091	     -0.64644994	     -2.71539645	     44.99992434	    -14.99999999	     44.99992434	     75.00017585	     45.00000026	      0.00000000	      0.00000000	     44.99992434	    -14.99999999	     44.99992434	     75.00017585	     45.00000026	      0.00000000	      0.00000000
      5.19000000	      2.15727491	      1.38960660	    -88.52025753	      1.22066344	      0.94167411	      0.29541215	      1.55722827	     -7.16418118	    -20.61163096	      7.51590729	      0.13117733	      2.28967993	      5.61756579	      0.00000000	      0.94760075	     -1.22637953	    -21.83308619	      6.53928973	      0.11413214	      1.88807186	     12.58171157	      0.00000000	      3.64183488	     -0.56113656	     -2.57004751	     44.99992434	    -14.99999999	     44.99992434	     75.00017585	     45.00000026	      0.00000000	      0.00000000	     44.99992434	    -14.99999999	     44.99992434	     75.00017585	     45.00000026	      0.00000000	      0.00000000
      5.19500000	      2.15142716	      1.37601297	    -88.50074196	      1.22070964	      0.94169424	      0.29545277	      1.52596601	     -7.15634261	    -20.62809722	      7.49205146	      0.13076097	      2.26999329	      5.63849509	      0.00000000	      0.93364845	     -1.23086374	    -21.81385898	      6.54220301	      0.11418298	      1.89645369	     12.57539716	      0.00000000	      3.62426024	     -0.53819469	     -2.59912510	     44.99992434	    -14.99999999	     44.99992434	     75.00017585	     45.00000026	      0.00000000	      0.00000000	     44.99992434	    -14.99999999	     44.99992434	     75.00017585	     45.00000026	      0.00000000	      0.00000000
      5.20000000	      2.14496234	      1.37730047	    -88.50456034	      1.22066570	      0.94172938	      0.29545985	      1.48852703	     -7.11695539	    -20.49408372	      7.40137742	      0.12917841	      2.22635034	      5.43006139	      0.00000000	      0.90089333	     -1.21585638	    -21.70276544	      6.45922330	      0.11273471	      1.86669010	     12.42861497	      0.00000000	      3.61695875	     -0.48482706	     -2.51377224	     44.99992434	    -14.99999999	     44.99992434	     75.00017585	     45.00000026	      0.00000000	      0.00000000	     44.99992434	    -14.99999999	     44.99992434	     75.00017585	     45.00000026	      0.00000000	      0.00000000
